<?xml version="1.0" encoding="utf-8"?>
<!-- Generator: Adobe Illustrator 27.0.0, SVG Export Plug-In . SVG Version: 6.00 Build 0)  -->
<svg version="1.1" id="Layer_1" xmlns="http://www.w3.org/2000/svg" xmlns:xlink="http://www.w3.org/1999/xlink" x="0px" y="0px"
	 viewBox="0 0 2000 2000" style="enable-background:new 0 0 2000 2000;" xml:space="preserve">
<style type="text/css">
	.st0{fill:#FFFFFF;}
	.st1{opacity:0.4;}
	.st2{fill:#A67C52;}
	.st3{fill:#F78C8B;}
	.st4{fill:#CCCCCC;}
</style>
<rect x="898.3" y="1000" class="st0" width="180.4" height="201.7"/>
<g>
	<ellipse class="st1" cx="1026.1" cy="1874.7" rx="856.5" ry="120.8"/>
	<g>
		<g>
			<g>
				<path class="st0" d="M494.3,1771.3c0,0-151.2,48.1-44.3,115.5c106.9,67.4,477.1,50.5,445.8-101"/>
				<path d="M638.5,1945.7c-81.3,0-159.3-14.9-201.4-41.4c-35.5-22.3-51.5-46.9-47.7-73.1c7.1-48.8,82.5-75.2,97.5-80
					c12-3.8,25.1,2.1,29.2,13.1c4.1,11.1-2.2,23.1-14.2,26.9l0,0c-25.6,8.2-64.5,28.4-67,45.6c-1.2,8.6,9,20.4,28.1,32.4
					c71.1,44.8,278.8,48.7,371.2-7.1c32.4-19.6,45.1-43.3,39.1-72.4c-2.4-11.5,5.8-22.6,18.3-24.8c12.5-2.2,24.5,5.4,26.8,16.9
					c9.6,46.6-10.8,86.6-59.1,115.8C804.5,1930.7,719.8,1945.7,638.5,1945.7z"/>
			</g>
		</g>
		<g>
			<g>
				<path class="st0" d="M1520.4,1771.3c0,0,151.2,48.1,44.3,115.5c-106.9,67.4-477.1,50.5-445.8-101"/>
				<path d="M1376.3,1945.7c-81.4,0-166-14.9-220.8-48.1c-48.3-29.2-68.7-69.2-59.1-115.8c2.4-11.5,14.4-19,26.8-16.9
					c12.5,2.2,20.6,13.3,18.3,24.8c-6,29.2,6.8,52.9,39.1,72.4c92.4,55.9,300.1,51.9,371.2,7.1c19.1-12,29.3-23.9,28.1-32.4
					c-2.4-16.6-40.4-37.1-67-45.5c-12-3.8-18.4-15.9-14.2-26.9c4.1-11.1,17.2-17,29.2-13.1c15,4.8,90.4,31.1,97.5,80
					c3.8,26.1-12.2,50.7-47.7,73.1C1535.6,1930.8,1457.5,1945.7,1376.3,1945.7z"/>
			</g>
		</g>
		<path class="st2" d="M538.3,844.8c-69.9,235.2-268.2,986.7,52.8,986.7l416.3-7.2l416.3,7.2c321.1,0,122.8-751.5,52.8-986.7"/>
		<g>
			<path class="st0" d="M1483.5,1498.4c0,305.8-213.2,338.9-476.2,338.9c-263,0-476.2-33-476.2-338.9
				c0-305.8,213.2-624.3,476.2-624.3C1270.3,874,1483.5,1192.5,1483.5,1498.4z"/>
		</g>
		<path d="M1423.6,1852.6l-416.3-7.2l-415.8,7.2c-56.7,0-102.2-20.4-135.4-60.7c-148.2-179.3-7.4-726,60-952.8
			c3.4-11.3,16-17.9,28.2-14.8c12.2,3.1,19.4,14.8,16.1,26c-51.2,172.2-207.4,747-67.8,915.9c24.5,29.6,56.7,44,98.5,44l415.8-7.2
			c0.3,0,0.6,0,0.9,0l416.3,7.2c41.4,0,73.6-14.4,98.1-44c139.5-168.9-16.6-743.7-67.8-915.9c-3.4-11.3,3.8-22.9,16.1-26
			c12.2-3.1,24.9,3.5,28.2,14.8c67.4,226.7,208.2,773.5,60,952.8C1525.4,1832.2,1479.9,1852.6,1423.6,1852.6z"/>
		<g>
			<path class="st2" d="M1365.1,96.5c0,0,177.8-114.2,314.4-46.1c136.6,68.1,124.1,366.4-64.1,156.4c0,0-49.9,89.3-86.2,67.9
				C1492.9,253.3,1365.1,96.5,1365.1,96.5z"/>
			<path d="M1725,299.5c-30.5,0-66.1-20.3-106.2-60.3c-17.5,25.2-46.2,57.7-77.6,57.7c-8.2,0-16-2.1-23.1-6.3
				c-38.3-22.6-156.1-166.5-169.4-182.8c-3.3-4.1-4.7-9.3-3.9-14.4c0.9-5.1,4-9.6,8.5-12.5c4.5-2.9,112.1-71.1,228.1-71.1
				c39.6,0,75.9,8.1,107.8,23.9c83.9,41.8,114,154.4,97.8,213.4C1778,280.4,1755.4,299.5,1725,299.5z M1615.4,187.9
				c6.1,0,11.9,2.5,15.8,6.9c54.1,60.4,83.6,66.9,93.8,66.9c10.5,0,18-8,22.3-23.7c12.8-46.8-14.1-139.2-77.5-170.9
				c-25.8-12.9-55.5-19.4-88.3-19.4c-77.2,0-152.9,35.6-186.5,53.9c49.6,59.9,123.2,144.2,145.2,157.2c0.6,0.3,0.8,0.3,1,0.3
				c11.3,0,38.4-29.6,55.9-60.9c3.2-5.6,9.2-9.5,16-10.1C1613.9,187.9,1614.7,187.9,1615.4,187.9z"/>
		</g>
		<g>
			<path class="st2" d="M649.6,99.8c0,0-177.8-114.2-314.4-46.1C198.5,121.9,211,420.2,399.3,210.2c0,0,49.9,89.3,86.2,67.9
				C521.9,256.6,649.6,99.8,649.6,99.8z"/>
			<path d="M289.7,302.9c-30.3,0-53-19.1-62.1-52.3C211.4,191.5,241.5,79,325.4,37.1c31.9-15.9,68.1-23.9,107.8-23.9
				c116,0,223.6,68.2,228.1,71.1c4.6,2.9,7.6,7.5,8.5,12.5c0.9,5.1-0.5,10.3-3.9,14.4C652.7,127.5,534.9,271.4,496.6,294
				c-7.1,4.2-14.9,6.3-23.1,6.3c0,0,0,0,0,0c-31.4,0-60-32.5-77.6-57.7C355.8,282.6,320.2,302.9,289.7,302.9z M433.2,51
				c-32.8,0-62.5,6.5-88.3,19.4c-63.5,31.6-90.4,124-77.5,170.9c4.3,15.8,11.8,23.7,22.3,23.7c10.2,0,39.7-6.5,93.8-66.9
				c4.4-4.9,11.2-7.4,18-6.7c6.8,0.7,12.9,4.5,16,10.1c17.6,31.3,44.8,60.9,56,60.9c0.2,0,0.4,0,1-0.3
				c22.1-13,95.7-97.3,145.2-157.2C586,86.7,510.2,51,433.2,51z"/>
		</g>
		<path class="st0" d="M433.5,634.3c0,0-153.5-603.7,566.5-613.9c720-10.1,599.4,553.2,599.4,553.2s-51.2,357.5-621.3,313.7
			C407.9,843.5,433.5,634.3,433.5,634.3z"/>
		<g>
			<g>
				<g>
					<path class="st2" d="M433.5,634.3c0,0-21.2,173.7,406.7,237.7l55.4-469.2c0,0,77.7-242.8-20-373.9
						C298.5,103.4,433.5,634.3,433.5,634.3z"/>
				</g>
			</g>
		</g>
		<g>
			<g>
				<g>
					<path class="st2" d="M1599.4,573.6c0,0,106.2-496.2-476-548.8c-102.6,130.1-23.2,378-23.2,378l57.3,484.5
						C1559.4,852.4,1599.4,573.6,1599.4,573.6z"/>
				</g>
			</g>
		</g>
		<path d="M1071.8,910c-30.6,0-62.7-1.3-95.4-3.8C648.8,881,513,800.3,456.8,737.1c-41.8-47-44.2-88.6-43.9-101.1
			c-7-29.8-58.2-272.2,92.7-450.6C606,66.6,772.2,4.8,999.7,1.6c6.5-0.1,13-0.1,19.3-0.1c228.8,0,396.8,58.3,499.2,173.3
			c147.3,165.5,104.7,386.6,101.4,402c-1.3,8.5-15.5,88-87.5,167.7C1464,819.9,1328.8,910,1071.8,910z M1019,39.3
			c-6.1,0-12.5,0-18.7,0.1c-214.3,3-369.8,59.9-462.2,169C392.5,380.3,452.8,627.6,453.4,630c0.5,2.1,0.7,4.3,0.4,6.4
			c-0.1,1.2-2.9,35.6,36.3,78.5c51.9,56.8,179,129.6,489.6,153.5c31.6,2.4,62.6,3.7,92,3.7c192.5,0,336.3-50.6,427.5-150.3
			c67.8-74.3,79.7-149.9,79.9-150.7c0.1-0.4,0.1-0.8,0.2-1.1c0.5-2.1,44.2-217.6-93-371.5C1392,92.8,1234.8,39.3,1019,39.3z"/>
		<g>
			<path class="st0" d="M1571.8,954.5c0,0-545.7,267.2-1152.1-23.4c0,0,10.1-391.3,159.9-414.9c149.9-23.6,833.3,0,833.3,0
				L1567.5,660L1571.8,954.5z"/>
			<path d="M1016.7,1085.6c-211.8,0-415.8-46.3-606.4-137.6c-6.9-3.3-11.2-10-11-17.2c0.1-4.1,2.8-100.6,24.1-201.7
				c30-142.2,81.4-220.1,152.8-231.3c45.3-7.1,141.6-10.8,286.1-10.8c244.5,0,548.4,10.4,551.4,10.5c5.2,0.2,10.1,2.2,13.8,5.6
				l154.6,143.8c3.7,3.5,5.9,8.2,5.9,13.1l4.3,294.5c0.1,7.1-4.1,13.6-10.9,17C1571.9,975.9,1344.2,1085.6,1016.7,1085.6z
				 M440.7,919.8c181.4,84.9,375.1,127.9,576,127.9c277.7,0,485.4-83.3,534.5-104.9l-4-274.9l-143-133
				c-49.9-1.6-320.4-10.2-541.8-10.2c-142.2,0-236.1,3.4-279.2,10.2c-51.3,8.1-93.7,79.4-119.4,200.8
				C447.2,813.8,442.1,891.1,440.7,919.8z"/>
		</g>
		<g>
			<path class="st0" d="M967.1,437.9c0,0-760.2-109.7-709.1,316.3c51.2,426,363.5,267.1,318,138.8c-45.5-128.4-40.2-400.2,106-303.4
				c146.2,96.8,540.9,93.6,625-16.1c84.1-109.7,179.1,187.2,149.9,309.8c-29.2,122.6,268.9,300.4,292.4-151.7
				C1769,351,1339.9,457.5,967.1,437.9z"/>
			<path d="M449,1050.4c-35.1,0-86.4-11.8-131.7-67.8c-40.9-50.7-67.7-126.8-79.7-226.3c-10.7-88.9,11.7-162.6,66.5-219.1
				c104.9-108.2,308.6-130.9,461-130.9c109,0,193.3,11.3,204,12.8c34.1,1.8,71.9,2.6,115.5,2.6c38.8,0,78.1-0.7,116.2-1.3
				c36.8-0.6,74.8-1.3,111-1.3c175.2,0,308.2,15.7,387.5,92.6c52.4,50.7,75.4,122.9,70.3,220.8c-14.5,279.3-131.7,309.5-181.4,309.5
				c0,0,0,0,0,0c-43.4,0-87.9-21.4-119-57.2c-28.7-33-40.5-71.5-32.4-105.6c18.6-78.2-17.8-237.8-67.2-294.6
				c-8.9-10.3-17.7-16.1-24.2-16.1c-6.1,0-13.8,5.6-21.7,15.9c-52.9,69.1-202,93.7-323.9,93.7c-137.4,0-260.6-27.3-329.8-73.1
				c-16.7-11-31.7-16.9-43.4-16.9c-6.6,0-16.6,1.5-27,14.8c-38.9,49.5-34.8,197.7-4.1,284.2c11.9,33.5,4.3,71-20.7,102.9
				C545.5,1027.2,497.3,1050.4,449,1050.4z M765.2,444.1c-144,0-335.7,20.5-430.5,118.3c-46.7,48.2-65.7,112-56.3,189.7
				c19.6,163.1,83.4,260.5,170.6,260.5c35.4,0,70.8-17.2,92.6-44.9c17.2-21.9,22.7-47.1,14.9-68.9c-31.2-87.9-42.5-251.5,9.9-318.1
				c15.6-19.9,36.5-30.4,60.2-30.4c20.6,0,43.3,8.1,67.3,24c61.5,40.7,178.7,66,305.9,66c140.3,0,254.3-30.5,290.4-77.7
				c16.2-21.2,34.8-31.9,55.2-31.9c19.7,0,38.6,10.2,56.1,30.3c57.3,65.8,96.7,236.6,75.3,326.4c-5.4,22.5,3.7,50.1,24.3,73.8
				c23.1,26.5,56.5,43,87.1,43.1c0,0,0,0,0,0c79.1,0,131.6-102.2,140.5-273.5c4.5-87-14.8-150.1-59-192.9
				c-69.3-67.1-193.2-80.9-357.9-80.9c-35.9,0-72,0.6-110.3,1.3c-38.2,0.6-77.7,1.3-116.9,1.3c-44.8,0-83.6-0.9-118.8-2.7
				c-0.7,0-1.3-0.1-2-0.2C963.1,456.4,876.1,444.1,765.2,444.1z"/>
		</g>
		<g>
			<path class="st0" d="M495.6,536.5c0,0,18.3-121.4,171.8-131.5c153.5-10.1,213.4-148.4,331.5-134.9
				c118.1,13.5,169.3,94.4,275.3,107.9c106,13.5,234.3,84,237.6,158.5"/>
			<path d="M1511.7,555.4c-10.9,0-20-8-20.5-18.2c-2.7-62.7-122.5-128.2-219.9-140.5c-55.6-7.1-97-31.1-137-54.3
				c-41.9-24.3-81.4-47.2-138-53.6c-50.6-5.8-90.7,22.2-137.1,54.6c-50.3,35.1-107.3,74.9-190.3,80.4
				c-134.4,8.9-152.3,111-153,115.4c-1.6,10.3-12,17.5-23.2,16c-11.2-1.5-18.9-11-17.4-21.3c0.2-1.4,22.5-136.7,190.6-147.8
				c70.9-4.7,120.5-39.3,168.5-72.8c51.3-35.8,99.8-69.7,166.9-62c65.6,7.5,110.9,33.7,154.7,59.1c38.1,22,74,42.9,120.8,48.8
				c117.7,15,251.5,91.2,255.2,176.5c0.5,10.4-8.3,19.2-19.7,19.7C1512.2,555.4,1511.9,555.4,1511.7,555.4z"/>
		</g>
		<g>
			<g>
				<g>
					<path d="M1146.2,418.7c0,37.1-69.2,138.1-154.6,138.1c-85.4,0-154.6-100.9-154.6-138.1c0-37.1,69.2-70.6,154.6-70.6
						C1076.9,348.1,1146.2,381.6,1146.2,418.7z"/>
				</g>
			</g>
		</g>
		<g>
			<g>
				<path class="st3" d="M1354.3,150.3c-151.4,0-223.7,14.5-256.5,47.7H891.9c-32.9-33.3-105.1-47.7-256.5-47.7
					c-247.6,0-287,76-273.6,189.5c12.8,109,104.1,216.5,273.6,216.5c156.5,0,268.8-105,278.5-221c0.6-6.8,1.1-13.3,1.6-19.7h158.8
					c0.5,6.4,1,12.9,1.6,19.7c9.8,116,122,221,278.5,221c169.5,0,260.8-107.5,273.6-216.5C1641.3,226.3,1601.9,150.3,1354.3,150.3z"
					/>
				<path d="M1354.3,575.6c-78.7,0-152.6-25.6-208.3-72c-53.4-44.6-85.7-103.8-91-166.8c-0.1-0.6-0.1-1.3-0.2-1.9H934.8
					c-0.1,0.6-0.1,1.3-0.2,1.9c-5.3,63-37.6,122.3-91,166.8c-55.6,46.4-129.6,72-208.3,72c-184.4,0-280.7-117.4-294.4-233.7
					c-5.2-44.7-5.9-101.5,35.9-144.5c44-45.2,126.1-66.3,258.5-66.3c148.5,0,224.8,13.5,265.2,47.7h188.7
					c40.4-34.2,116.6-47.7,265.2-47.7c132.3,0,214.5,21.1,258.5,66.3c41.8,43,41.2,99.8,35.9,144.5
					C1635.1,458.2,1538.7,575.6,1354.3,575.6z M915.4,296.4h158.8c11,0,20.1,7.9,20.8,18c0.5,6.3,1,12.8,1.5,19.5
					c8.4,99.9,107.1,203.3,257.7,203.3c158.5,0,241.3-100.1,252.9-199.4c6.4-54.6-1.5-90-25.5-114.7c-35-36-109.4-53.5-227.4-53.5
					c-140.3,0-212.4,12.4-241.1,41.4c-3.9,4-9.5,6.3-15.4,6.3H891.9c-5.9,0-11.5-2.3-15.4-6.3c-28.7-29.1-100.8-41.4-241.1-41.4
					c-118,0-192.4,17.5-227.4,53.5c-24,24.7-31.9,60.1-25.5,114.7c11.6,99.2,94.4,199.4,252.9,199.4
					c150.6,0,249.3-103.4,257.7-203.3c0.6-6.7,1.1-13.2,1.5-19.5C895.3,304.2,904.4,296.4,915.4,296.4z"/>
			</g>
			<g>
				<path d="M833.2,340.6c-6.9,82.1-86.3,156.3-197,156.3c-119.9,0-184.5-76.1-193.5-153.2c-9.4-80.3,18.4-134.1,193.5-134.1
					C838.9,209.7,841.1,246.3,833.2,340.6z"/>
				<path d="M636.2,512.6c-131.8,0-200.6-83.9-210.4-167.1c-3.8-32-4.2-72.8,25.9-103.8c31.6-32.5,90.2-47.6,184.4-47.6
					c111.6,0,165.8,10.8,193.6,38.5c27.2,27.1,23.9,67,20.3,109.3C843,425.7,761.1,512.6,636.2,512.6z M636.2,225.3
					c-82.8,0-134.9,12.2-159.2,37.2c-16.5,17-21.9,41.5-17.5,79.5c8.1,69.3,65.9,139.2,176.7,139.2c105.3,0,174.2-72.2,180.1-141.9
					c3.6-42.6,4.6-69.6-11.4-85.6C785.2,234.1,733.1,225.3,636.2,225.3z"/>
			</g>
			<g>
				<path class="st4" d="M541.5,477.6c11.1,5.1,23.2,9.4,36.2,12.5l72.7-280.3c-4.7,0-9.3-0.1-14.2-0.1c-8.9,0-17.2,0.2-25.4,0.4
					L541.5,477.6z"/>
			</g>
			<g>
				<path class="st4" d="M593.7,493.5c12.1,2,25,3.2,38.6,3.4l73.9-285.2c-11.9-0.8-24.9-1.3-39-1.6L593.7,493.5z"/>
			</g>
			<g>
				<path d="M1156.1,340.6c6.9,82.2,86.5,156.6,197.4,156.6c120.1,0,184.8-76.2,193.9-153.4c9.4-80.5-18.5-134.3-193.9-134.3
					C1150.4,209.4,1148.2,246.1,1156.1,340.6z"/>
				<path d="M1353.5,512.8c-125.1,0-207.2-87-214.3-171.1c-3.6-42.3-6.9-82.3,20.3-109.4c27.8-27.7,82.2-38.5,193.9-38.5
					c94.4,0,153.1,15.1,184.8,47.7c30.2,31.1,29.8,71.9,26,104C1554.5,428.8,1485.5,512.8,1353.5,512.8z M1353.5,225.1
					c-97.1,0-149.3,8.8-169,28.5c-16,16-15,43.1-11.4,85.8c5.9,69.9,75,142.2,180.5,142.2c111,0,168.9-70.1,177-139.5
					c4.5-38.1-0.9-62.7-17.5-79.7C1488.7,237.3,1436.5,225.1,1353.5,225.1z"/>
			</g>
			<g>
				<path class="st4" d="M1264.3,479.3c11.4,4.9,23.6,9,36.4,11.9l73-281.5c-6.5-0.2-13.2-0.3-20.2-0.3c-6.6,0-13.1,0-19.3,0.1
					L1264.3,479.3z"/>
			</g>
			<g>
				<path class="st4" d="M1390.3,210.4l-73.6,283.9c11.8,1.9,24.1,2.9,36.8,2.9c0.7,0,1.3,0,1.9,0l73.5-283.4
					C1417.1,212.2,1404.3,211.1,1390.3,210.4z"/>
			</g>
		</g>
		<g>
			<g>
				<g>
					<path d="M998.1,672.6c-9.4,0-17.1-6.8-17.5-15.5L974,515.4c-0.4-9,7.1-16.5,16.8-16.9c9.7-0.3,17.9,6.6,18.3,15.5l6.6,141.7
						c0.4,9-7.1,16.5-16.8,16.9C998.7,672.6,998.4,672.6,998.1,672.6z"/>
				</g>
			</g>
		</g>
		<g>
			<path class="st0" d="M1243,619.4c0,0-13.7-109.9,30.1-108.7c43.9,1.2,38.6,52.9,38.6,52.9L1243,619.4z"/>
			<path d="M1243,638.3c-2.5,0-5-0.4-7.4-1.3c-7.1-2.5-12.1-8.5-13-15.5c-1.8-14.4-9.4-87.8,18.4-116.5c8.7-9,19.9-13.6,32.7-13.2
				c16.8,0.5,31,6.4,41.3,17.1c20.1,21,17.5,52.9,17.1,56.5c-0.5,4.8-2.9,9.2-6.9,12.4l-68.7,55.8
				C1252.8,636.7,1247.9,638.3,1243,638.3z M1272.5,529.6c-5.9,3.1-10.6,23.3-11.1,49.7l30-24.3c-0.4-6.7-2.1-15.9-7.1-21.1
				C1282.5,532,1279.5,529.8,1272.5,529.6z"/>
		</g>
		<g>
			<path class="st0" d="M745.7,619.4c0,0-7.4-109.9-51.2-108.7c-43.9,1.2-45.6,59.4-45.6,59.4L745.7,619.4z"/>
			<path d="M745.7,638.3c-3.4,0-6.8-0.8-9.9-2.4L639,586.7c-6.7-3.4-10.8-10-10.6-17.1c0.8-26.3,15.5-76.3,65.5-77.7
				c0.5,0,0.9,0,1.4,0c58,0,69,96.8,70.9,126.4c0.5,6.9-3.2,13.5-9.5,17.1C753.4,637.3,749.6,638.3,745.7,638.3z M670.9,559.7
				l49.6,25.2c-6.5-31.8-17.4-55.3-25.2-55.3C679.6,530.1,673.3,547.7,670.9,559.7z"/>
		</g>
		<g>
			<g>
				<g>
					<path d="M1013.6,821.7c-59.9,0-132.2-12.1-214.8-47.9c-8.8-3.8-12.6-13.5-8.4-21.6c4.1-8.1,14.6-11.6,23.4-7.8
						c227.8,98.7,367.1,4.2,372.9,0.1c7.7-5.4,18.7-4,24.6,3.1c5.9,7.1,4.4,17.2-3.2,22.7C1203.7,773.4,1133.5,821.7,1013.6,821.7z"
						/>
				</g>
			</g>
		</g>
		<g>
			<g>
				<g>
					<path class="st0" d="M637.8,1762.7c0,0,322.6,202.7,739.1,0"/>
				</g>
				<g>
					<path d="M637.8,1762.7c0,0,2.8,1.1,8,3.2c5.2,2.1,13,4.9,22.8,8.5c9.8,3.6,21.9,7.5,35.7,11.9c13.8,4.4,29.6,8.7,46.7,13.2
						c17.2,4.5,35.9,8.7,55.7,12.8c19.9,3.8,40.8,7.7,62.7,10.4c10.9,1.6,22,2.6,33.2,4c5.6,0.7,11.3,0.9,17,1.4
						c5.7,0.4,11.4,1.1,17.2,1.4c11.5,0.5,23.1,1.4,34.8,1.5c5.8,0.2,11.7,0.3,17.5,0.5l17.5-0.2c11.7,0.2,23.4-0.4,35-0.9
						c11.7-0.3,23.2-1.5,34.7-2.2c5.8-0.3,11.5-1,17.1-1.6c5.7-0.6,11.4-1.1,17-1.7c11.3-1.1,22.3-3.1,33.2-4.4
						c21.7-3.4,42.8-6.9,62.6-11.3c5-1,9.9-2,14.7-3c4.8-1.2,9.5-2.3,14.1-3.4c9.3-2.3,18.4-4.2,27-6.5c8.6-2.3,16.8-4.5,24.7-6.6
						c8-1.9,15.3-4.2,22.3-6.3c13.8-4.4,26.3-7.4,36.2-11c9.9-3.4,17.9-5.7,23.3-7.4c5.5-1.6,8.4-2.5,8.4-2.5s-2.5,1.6-7.2,4.7
						c-4.7,2.9-11.6,7.5-20.6,12.8c-8.8,5.6-20.1,11.5-33.2,18.3c-12.9,7.1-28.1,13.7-44.8,21.1c-8.3,3.7-17.3,6.8-26.5,10.4
						c-4.6,1.7-9.3,3.5-14.1,5.3c-4.9,1.6-9.8,3.2-14.8,4.8c-20,6.6-41.6,12.4-64.2,17.5c-22.6,4.9-46.3,9.1-70.6,11.8
						c-24.3,2.8-49.2,4.4-74.1,4.5c-6.2,0-12.5,0.1-18.7,0c-6.2-0.2-12.4-0.5-18.6-0.7c-12.4-0.2-24.7-1.7-36.9-2.6
						c-24.3-2.5-48.2-6-70.9-10.8c-22.8-4.5-44.3-10.5-64.5-16.7c-20.1-6.5-38.8-13.3-55.6-20.5c-16.8-7.2-31.8-14.5-44.7-21.5
						c-13.1-6.8-23.9-13.5-32.7-19.2c-8.9-5.5-15.4-10.6-19.9-13.8C640,1764.6,637.8,1762.7,637.8,1762.7z"/>
				</g>
			</g>
		</g>
		<path class="st2" d="M886.5,949.1c0,0-350-188.3-472.8-7.7C290.9,1122,616.3,1342.1,1193.5,1131
			C1193.5,1131,971.1,944.5,886.5,949.1z"/>
		<path d="M758.5,1238.6C758.5,1238.6,758.5,1238.6,758.5,1238.6c-178.8,0-317.7-53.7-371.7-143.7c-31.6-52.7-28.9-111.1,7.5-164.7
			c39.8-58.6,104-88.3,190.8-88.3c132.7,0,277,70.4,307.4,86c94.3,3.3,293.8,168.5,316.5,187.5c5.9,4.9,8.6,12.3,7.1,19.5
			c-1.4,7.2-6.8,13.2-14.1,15.9C1042.6,1209,893.4,1238.6,758.5,1238.6z M585.1,884.2c-70.9,0-120.6,22.4-151.9,68.4
			c-27.5,40.5-29.6,82.5-6.2,121.6c35.3,58.9,140.9,121.9,331.5,121.9c0,0,0,0,0,0c119.2,0,250.8-24.3,391.5-72.4
			c-84.2-67.1-209.6-153.6-260.3-153.6c-0.6,0-1.2,0-1.8,0c-4.5,0.2-9-0.7-12.9-2.8C873.4,966.5,718.6,884.2,585.1,884.2z"/>
		<path class="st2" d="M886.5,949.1c0,0,394.8,293.9,600.5,240.3c205.7-53.6,233.9-248,14.9-338.3
			C1282.9,760.8,1030.8,803.6,886.5,949.1z"/>
		<path d="M1431.8,1217.1C1431.8,1217.1,1431.8,1217.1,1431.8,1217.1c-219.3,0-546-241.3-559.8-251.6c-4.9-3.7-8-9.1-8.5-14.9
			c-0.5-5.8,1.7-11.6,6-15.9c95.9-96.6,239.5-152.1,394-152.1c84.3,0,170,17,247.7,49.1c110,45.4,171.8,121.5,165.3,203.5
			c-6.3,79.8-76.6,146.7-183.4,174.5C1474.5,1214.7,1453.9,1217.1,1431.8,1217.1z M920.8,946.8c73.9,52,337,227.9,511,227.9
			c0,0,0,0,0,0c17.9,0,34.3-1.9,48.9-5.7c87.7-22.9,145.2-75.3,150.1-136.8c5-63.5-46.7-124-138.3-161.8
			c-71.9-29.7-151.1-45.4-229-45.4C1131,825.1,1007.6,869.2,920.8,946.8z"/>
	</g>
</g>
</svg>
