<?xml version="1.0" encoding="UTF-8" standalone="no"?>
<svg
   id="Layer_1"
   data-name="Layer 1"
   viewBox="0 0 6003686.5 104238.07"
   version="1.1"
   sodipodi:docname="header-logo.svg"
   inkscape:version="1.2.1 (9c6d41e, 2022-07-14)"
   width="6003686.5"
   height="104238.07"
   xmlns:inkscape="http://www.inkscape.org/namespaces/inkscape"
   xmlns:sodipodi="http://sodipodi.sourceforge.net/DTD/sodipodi-0.dtd"
   xmlns="http://www.w3.org/2000/svg"
   xmlns:svg="http://www.w3.org/2000/svg">
<sodipodi:namedview
   id="namedview95"
   pagecolor="#ffffff"
   bordercolor="#000000"
   borderopacity="0.25"
   inkscape:showpageshadow="2"
   inkscape:pageopacity="0.0"
   inkscape:pagecheckerboard="0"
   inkscape:deskcolor="#d1d1d1"
   showgrid="false"
   inkscape:zoom="0.36792977"
   inkscape:cx="920.01253"
   inkscape:cy="-123.6649"
   inkscape:window-width="2257"
   inkscape:window-height="1205"
   inkscape:window-x="0"
   inkscape:window-y="25"
   inkscape:window-maximized="0"
   inkscape:current-layer="Layer_1" />
<defs
   id="defs4">
   <style
      id="style2">.cls-1{fill:#fbda98;}.cls-2{fill:#faaf5e;}.cls-3{fill:#e26d1e;opacity:0.5;}.cls-4{fill:#4d4d4d;}.cls-5{fill:#fff;}.cls-6{fill:#f78c8b;}</style>
</defs>
<path
   d="m -1569098.5,306.45944 c 36.8,0 72,20.8 72,58.4 0,21.6 -11.2,35.6 -29.2,35.6 -23.6,0 -29.2,-12 -29.2,-23.2 0,-7.2 -4,-9.6 -13.6,-9.6 -20.4,0 -30,12.4 -30,30.8 0,16.8 8,32.8 28,32.8 26.4,0 28.8,-10.8 44.8,-10.8 22,0 29.2,18.8 29.2,30 0,24 -26.4,40.8 -73.2,40.8 -55.2,0 -92.4,-35.6 -92.4,-93.2 0,-46 31.6,-91.6 93.6,-91.6 z"
   id="path70"
   inkscape:export-filename="path70.svg"
   inkscape:export-xdpi="96"
   inkscape:export-ydpi="96" />
<path
   d="m -1568433.3,306.45944 c 36.8,0 72,20.8 72,58.4 0,21.6 -11.2,35.6 -29.2,35.6 -23.6,0 -29.2,-12 -29.2,-23.2 0,-7.2 -4,-9.6 -13.6,-9.6 -20.4,0 -30,12.4 -30,30.8 0,16.8 8,32.8 28,32.8 26.4,0 28.8,-10.8 44.8,-10.8 22,0 29.2,18.8 29.2,30 0,24 -26.4,40.8 -73.2,40.8 -55.2,0 -92.4,-35.6 -92.4,-93.2 0,-46 31.6,-91.6 93.6,-91.6 z"
   id="path76" />
<path
   d="m -1568163.3,398.45944 c 0,53.2 -38,90.8 -87.6,90.8 -57.6,0 -90,-37.6 -90,-90.4 0,-58 32.4,-92.4 87.6,-92.4 56.4,0 90,32 90,92 z m -60.8,-2.8 c 0,-16 -9.6,-29.6 -26.4,-29.6 -18.8,0 -28,13.2 -28,32.8 0,16.4 9.2,30.8 27.6,30.8 19.6,0 26.8,-16.4 26.8,-34 z"
   id="path78" />
<path
   d="m -1568643.7,368.28986 c 0,41.15533 -30.5,70.24255 -70.3,70.24255 -46.2,0 -72.2,-29.08722 -72.2,-69.93311 0,-44.86859 26,-71.4803 70.3,-71.4803 45.2,0 72.2,24.75508 72.2,71.17086 z m -48.8,-2.16607 c 0,-12.37754 -7.7,-22.89845 -21.2,-22.89845 -15,0 -22.4,10.21148 -22.4,25.37396 0,12.68698 7.4,23.82677 22.1,23.82677 15.7,0 21.5,-12.68698 21.5,-26.30228 z"
   id="path78-4"
   style="stroke-width:0.78774" />
<path
   d="m -1568801.3,406.22149 c 0,53.2 -38,90.8 -87.6,90.8 -57.6,0 -90,-37.6 -90,-90.4 0,-58 32.4,-92.4 87.6,-92.4 56.4,0 90,32 90,92 z m -60.8,-2.8 c 0,-16 -9.6,-29.6 -26.4,-29.6 -18.8,0 -28,13.2 -28,32.8 0,16.4 9.2,30.8 27.6,30.8 19.6,0 26.8,-16.4 26.8,-34 z"
   id="path78-9" />
<path
   d="m -1568142.1,247.25944 c 0,-22 11.2,-36 34.4,-36 24.4,0 35.6,14 35.6,30 0,15.6 -3.2,24.4 -3.2,47.6 l -0.8,130.4 c 0,4.8 2,11.6 6.4,11.6 5.6,0 4.8,-1.2 12,-0.8 7.2,0.4 20,4.8 20,25.6 0,27.2 -20.4,35.2 -47.2,35.2 -22.8,0 -53.6,-10.8 -53.2,-55.6 l 0.8,-156.8 c 0,-8.8 -4.8,-21.6 -4.8,-31.2 z"
   id="path80" />
<path
   d="m -1569085.8,246.605 c 0,-22 11.2,-36 34.4,-36 24.4,0 35.6,14 35.6,30 0,15.6 -3.2,24.4 -3.2,47.6 l -0.8,130.4 c 0,4.8 2,11.6 6.4,11.6 5.6,0 4.8,-1.2 12,-0.8 7.2,0.4 20,4.8 20,25.6 0,27.2 -20.4,35.2 -47.2,35.2 -22.8,0 -53.6,-10.8 -53.2,-55.6 l 0.8,-156.8 c 0,-8.8 -4.8,-21.6 -4.8,-31.2 z"
   id="path80-7" />
<path
   d="m -1568028.1,247.25944 c 0,-22 11.2,-36 34.4,-36 24.4,0 35.6,14 35.6,30 0,15.6 -3.2,24.4 -3.2,47.6 l -0.8,130.4 c 0,4.8 2,11.6 6.4,11.6 5.6,0 4.8,-1.2 12,-0.8 7.2,0.4 20,4.8 20,25.6 0,27.2 -20.4,35.2 -47.2,35.2 -22.8,0 -53.6,-10.8 -53.2,-55.6 l 0.8,-156.8 c 0,-8.8 -4.8,-21.6 -4.8,-31.2 z"
   id="path82" />
<path
   d="m -1567747.7,452.05944 c 0,22.8 -18,39.2 -72,39.2 -61.6,0 -96.4,-35.6 -96.4,-93.2 0,-46 31.6,-91.6 94,-91.6 38,0 70.4,18.4 70.4,62 0,30 -33.6,54.4 -83.6,54.4 -5.6,0 -10.8,0 -15.2,-0.4 8,8 20.4,13.2 39.2,13.2 17.2,0 26.8,-8 39.2,-8 16.4,0 24.4,10.4 24.4,24.4 z m -110,-72.4 c 7.6,0.8 16,1.2 20,1.2 23.2,0 31.2,-4.4 31.2,-12.4 0,-6.8 -6.8,-10.8 -17.6,-10.8 -12.4,0 -27.6,6.4 -33.6,22 z"
   id="path84" />
<path
   d="m -1567635.3,306.45944 c 36.8,0 72,20.8 72,58.4 0,21.6 -11.2,35.6 -29.2,35.6 -23.6,0 -29.2,-12 -29.2,-23.2 0,-7.2 -4,-9.6 -13.6,-9.6 -20.4,0 -30,12.4 -30,30.8 0,16.8 8,32.8 28,32.8 26.4,0 28.8,-10.8 44.8,-10.8 22,0 29.2,18.8 29.2,30 0,24 -26.4,40.8 -73.2,40.8 -55.2,0 -92.4,-35.6 -92.4,-93.2 0,-46 31.6,-91.6 93.6,-91.6 z"
   id="path86" />
<path
   d="m -1567528.5,366.05944 a 24.47,24.47 0 0 1 -24,-24.8 c 0,-23.2 11.2,-31.2 24.4,-31.2 4.8,0 9.6,0.8 13.6,0.8 0,-7.6 -2.4,-20 -2.4,-31.6 0,-14.8 8.4,-31.6 32.8,-31.6 28.4,0 36.4,14 36.4,26.8 0,13.6 -3.2,24 -3.2,36.4 13.6,0 24.8,-1.2 39.2,-1.2 19.6,0 26.4,9.2 26.4,28.4 0,18 -10,28.4 -26.4,28.4 -16.8,0 -29.6,-1.6 -40.8,-1.6 -0.8,18 -3.6,36.4 -2,54.4 0.4,4.8 1.2,12.4 9.6,12.4 7.2,0 11.2,-4 11.2,-12.4 0,-14 10.4,-18.8 23.6,-18.8 22,0 30,10.8 30,26.4 0,33.2 -17.6,63.6 -69.6,63.6 -48.8,0 -70,-29.6 -67.2,-71.2 1.2,-18 2.4,-36 1.6,-54 a 120.81,120.81 0 0 1 -13.2,0.8 z"
   id="path88" />
<path
   id="path88-3"
   style="stroke-width:0.917081"
   d="m -1568672.3,296.96071 c -19,0 -27.4,8.15758 -30.2,17.61914 0.7,-0.29054 1.5,-0.47955 2.3,-0.53125 1.8,-0.1138 3.6,0.35602 5.6,1.43165 1.8,1.0313 2.7,2.75946 3.9,4.41406 3,5.88316 3.7,12.56768 4.6,19.02148 0.9,6.99957 1.2,14.04685 1.9,21.06641 0.4,5.21831 1.2,10.39479 1.9,15.58398 0.7,5.0078 1.2,10.02919 1.5,15.06836 0.3,4.53393 0.4,9.07451 0.5,13.61524 0,1.8999 0.2,3.78941 0.4,5.67383 0.2,2.21338 0.1,4.1342 -0.3,5.77148 0.1,2.58122 0,5.162 -0.4,7.72656 -0.8,4.58616 -2.1,8.34947 -7,10.02539 -1.4,0.212 -2.7,0.44726 -4.1,0.33789 -1,-0.0252 -2.1,-0.067 -3.1,-0.19921 -1.3,-0.19904 -2.5,-0.54691 -3.5,-1.08204 0.7,10.57701 1.2,21.1757 0.4,31.64063 -0.3,4.67649 -1,12.08203 -8.3,12.08203 -6.2,0 -9.7,-3.89817 -9.7,-12.08203 0,-13.63973 -8.9,-18.31445 -20.3,-18.31445 -19,0 -25.9,10.52019 -25.9,25.71875 0,32.34567 15.2,61.96484 60.1,61.96484 42.1,0 60.4,-28.83963 58,-69.36914 -1.1,-17.5368 -2.1,-35.07254 -1.4,-52.60938 a 104.28907,117.70167 0 0 0 1.3,0.0879 c -0.4,-0.61707 -0.7,-1.26161 -1,-1.96093 -0.2,-0.218 -0.4,-0.43 -0.7,-0.65625 0,-0.89807 0,-1.79725 0,-2.69532 v -0.58789 -0.0293 -2.66602 -2.57031 -2.85156 -3.33008 -3.34375 -2.63086 -3.10742 -2.92774 -3.15039 -2.73437 -1.38086 c -6.6,-14.38927 -4.8,-26.21595 0.9,-32.38086 0.5,-4.81298 0.9,-9.89452 0.9,-14.8711 0,-14.41914 -7.3,-30.78711 -28.3,-30.78711 z" />
<path
   d="m -1567187.3,398.45944 c 0,53.2 -38,90.8 -87.6,90.8 -57.6,0 -90,-37.6 -90,-90.4 0,-58 32.4,-92.4 87.6,-92.4 56.4,0 90,32 90,92 z m -60.8,-2.8 c 0,-16 -9.6,-29.6 -26.4,-29.6 -18.8,0 -28,13.2 -28,32.8 0,16.4 9.2,30.8 27.6,30.8 19.6,0 26.8,-16.4 26.8,-34 z"
   id="path90" />
<path
   d="m -1567097.7,403.65944 c 0,24.8 7.6,34.8 7.6,49.6 0,19.6 -6,38 -36,38 -27.6,0 -33.2,-16.4 -33.2,-38 0,-13.2 1.6,-43.6 1.6,-66 0,-36.8 -10.8,-34.8 -10.8,-54.8 0,-10.8 5.2,-26 31.6,-26 22.8,0 34.8,13.2 36,27.2 6.8,-16.8 17.2,-27.2 44,-27.2 27.6,0 46.4,21.2 46.4,50.8 0,26.4 -11.6,44.4 -33.2,44.4 -12,0 -21.6,-6 -21.6,-17.2 0,-11.2 -4,-16.8 -14.8,-16.8 -13.2,0 -17.6,11.2 -17.6,36 z"
   id="path92" />
</svg>
